<svg version="1.1" id="Layer_1" xmlns="http://www.w3.org/2000/svg" xmlns:xlink="http://www.w3.org/1999/xlink" x="0px" y="0px"
	 width="100%" viewBox="0 0 1024 1024" enable-background="new 0 0 1024 1024" xml:space="preserve">
<path fill="#000000" opacity="1.000000" stroke="none" 
	d="
M509.996124,214.993713 
	C510.605072,210.141571 510.282410,205.092148 512.901306,200.337204 
	C515.721069,201.309448 515.663025,203.773041 516.058411,205.664261 
	C524.807312,247.508560 532.097107,289.623260 539.332336,331.748077 
	C540.851440,340.593048 542.721619,349.384430 543.976379,358.264587 
	C544.451477,361.627167 546.107544,362.821014 548.957825,363.382019 
	C571.001343,367.720978 590.470337,377.483795 607.856262,391.535553 
	C611.713928,394.653412 615.267883,398.146942 619.175110,401.659302 
	C625.765930,394.764099 632.156189,388.078766 638.890320,381.033600 
	C638.568298,379.441650 636.559326,378.314148 635.000183,376.926422 
	C613.087708,357.423706 588.223389,343.451569 559.476318,336.794037 
	C557.857178,336.419006 556.221008,336.040283 554.672302,335.453400 
	C550.430359,333.846008 548.215393,330.175934 549.194824,326.592682 
	C550.329285,322.441956 553.724731,320.388641 558.559875,321.323914 
	C574.699768,324.445923 589.933594,330.215607 604.560242,337.602020 
	C620.712891,345.759003 635.668823,355.657013 648.485229,368.571777 
	C649.164368,369.256134 649.999512,369.785736 650.837036,370.446533 
	C655.793213,367.449554 658.933228,362.845276 662.683167,358.901215 
	C665.107178,356.351807 662.294739,354.993958 660.900391,353.693207 
	C647.543640,341.233307 632.698608,330.813843 616.545105,322.339722 
	C597.098816,312.138245 576.561035,304.988892 554.862671,301.333710 
	C549.942017,300.504791 547.330872,297.651001 547.758240,293.419281 
	C548.200256,289.042877 551.142639,286.902466 556.524109,287.805786 
	C569.676025,290.013214 582.599731,293.197937 595.123657,297.855164 
	C623.768860,308.507507 649.254272,324.216644 671.148926,345.601837 
	C673.301636,347.704437 674.903015,347.877838 676.927490,345.617310 
	C678.140320,344.263123 679.634705,343.156891 681.029480,341.970917 
	C683.281311,340.056152 685.596130,339.914032 687.657471,342.146210 
	C689.588196,344.236938 689.754578,346.468445 687.917725,348.893829 
	C682.564026,355.962738 682.409424,356.161316 688.155334,362.926392 
	C704.931396,382.678192 717.994751,404.555725 727.081055,428.852692 
	C731.530823,440.751404 734.390808,453.041229 737.018250,465.410828 
	C737.325745,466.858826 737.229248,468.395355 737.292236,469.891998 
	C737.449341,473.624603 735.698486,476.052704 732.028809,476.611786 
	C728.180054,477.198242 725.440796,475.400146 724.627991,471.570892 
	C722.797180,462.946472 721.328552,454.249268 718.733826,445.793457 
	C709.758179,416.542725 695.569214,390.240021 674.748474,367.666046 
	C674.083923,366.945526 673.333496,366.304230 672.435974,365.447296 
	C668.301514,370.143402 664.286560,374.703735 659.729492,379.879883 
	C662.269043,382.992767 665.974915,387.396149 669.530823,391.917450 
	C686.929382,414.039185 698.705383,438.747498 703.741211,466.545166 
	C704.298340,469.620483 704.345886,472.556030 701.899841,474.917664 
	C697.519897,479.146423 691.331360,477.114594 689.844360,470.653229 
	C687.413147,460.088898 684.760864,449.620880 680.479431,439.622955 
	C673.004700,422.168365 663.189697,406.214752 650.222168,392.275543 
	C649.444336,391.439392 648.553040,390.708771 647.387329,389.624756 
	C640.380188,395.226746 634.318420,401.591949 628.226257,407.912018 
	C626.371948,409.835724 628.127014,411.238678 629.336487,412.574585 
	C646.172241,431.170135 657.055237,452.790985 662.050903,477.343231 
	C662.608948,480.086090 663.717773,481.259674 666.449707,481.751892 
	C693.622070,486.647675 720.761475,491.726227 747.934082,496.620453 
	C773.630615,501.248810 799.362305,505.681793 825.061096,510.297729 
	C828.828003,510.974304 833.044922,510.248901 836.924927,513.689697 
	C829.241028,516.258362 821.815002,516.919067 814.566711,518.235596 
	C766.427429,526.978943 718.271851,535.633362 670.095642,544.170654 
	C665.264526,545.026672 662.759277,546.829163 661.637024,552.051697 
	C656.583008,575.570496 646.819031,596.879150 630.311340,614.738159 
	C628.519592,616.676697 627.623840,618.607666 629.854736,620.784363 
	C635.910095,626.692444 641.981079,632.584351 648.401184,638.828369 
	C656.813049,629.832703 663.695679,620.502747 669.648926,610.463074 
	C678.990112,594.709961 685.661194,577.929138 689.097168,559.900330 
	C689.376648,558.433716 689.825500,556.992371 690.287231,555.568909 
	C691.586609,551.563232 694.380676,549.467834 698.573242,549.928650 
	C702.362854,550.345154 704.664673,553.985718 704.121338,558.639587 
	C703.269775,565.933472 701.472168,573.045166 699.307922,580.049133 
	C691.719116,604.608459 679.513672,626.590820 662.073242,645.518372 
	C659.344482,648.479736 659.377563,650.283142 662.263794,652.786926 
	C664.773071,654.963745 667.136414,657.363037 669.259460,659.917297 
	C672.042114,663.265198 674.231873,662.723999 676.868835,659.698364 
	C686.443909,648.711914 694.466309,636.659302 701.420593,623.908447 
	C710.711121,606.874084 718.072388,589.057373 722.006653,569.966248 
	C723.045471,564.925293 723.606323,559.778076 724.808411,554.781128 
	C725.672852,551.187378 728.643555,549.694702 732.127991,550.306641 
	C735.357788,550.873962 737.469543,553.007629 737.450317,556.573914 
	C737.440430,558.402588 737.375000,560.254272 737.082458,562.054504 
	C734.669250,576.903931 730.546265,591.271179 724.913696,605.222473 
	C715.405701,628.773010 702.572937,650.243225 685.160583,668.833862 
	C682.897339,671.250244 682.424683,673.074951 685.187622,675.405884 
	C686.545288,676.551208 687.497681,678.228821 688.467041,679.770325 
	C689.890930,682.034546 688.946106,683.921265 687.191833,685.516541 
	C685.550842,687.008911 683.745300,687.524719 681.779724,686.071167 
	C679.395508,684.308044 677.020203,682.532898 674.532227,680.682007 
	C668.297546,686.486450 662.432678,692.399353 656.102356,697.762634 
	C627.061401,722.366638 593.604736,737.396484 556.070129,743.546387 
	C551.922913,744.226013 549.095276,743.344177 547.906433,739.232178 
	C546.723328,735.139709 549.056885,731.385681 553.794556,730.474548 
	C564.098511,728.492859 574.322937,726.323792 584.270935,722.890991 
	C613.555969,712.785156 639.317078,696.958191 661.664795,675.542358 
	C662.953552,674.307373 664.538147,673.243835 664.907715,671.800598 
	C660.438110,667.001343 656.166992,662.415283 651.510986,657.415894 
	C644.595703,664.454590 637.712769,670.910095 630.225403,676.709045 
	C609.721313,692.589172 586.636475,702.885010 561.547607,708.932800 
	C559.950989,709.317688 558.243164,709.308960 556.583679,709.351929 
	C552.434143,709.459290 549.915649,707.308411 549.265625,703.330811 
	C548.620850,699.385559 550.865479,696.968628 554.404602,695.853394 
	C559.959167,694.103088 565.612061,692.665955 571.174438,690.938904 
	C596.324585,683.130066 617.907837,669.397278 637.023926,651.464172 
	C640.588806,648.119873 641.125061,645.635010 637.288452,642.200073 
	C631.621399,637.126221 626.251282,631.720642 620.553284,626.263489 
	C614.203125,632.148132 608.280884,637.753540 601.705505,642.572144 
	C586.052917,654.042542 568.836548,662.184937 549.865417,666.386230 
	C545.483459,667.356628 543.843750,669.412048 543.083984,673.997070 
	C538.077087,704.212158 532.986938,734.419922 526.704224,764.405518 
	C526.353760,766.078125 526.408325,768.090454 523.517212,770.123108 
	C531.501282,725.405640 539.296997,681.742798 547.092773,638.079956 
	C548.916504,643.140503 547.165588,648.099426 547.011230,652.951782 
	C548.781494,654.447815 550.393616,653.617798 551.926392,653.179016 
	C573.123291,647.110840 591.858521,636.760559 607.882935,621.478088 
	C611.199951,618.314636 610.845947,616.364746 607.842041,613.409302 
	C591.332520,597.165710 574.962708,580.779968 558.539856,564.448181 
	C558.187195,564.097534 557.571655,563.885254 557.417236,563.479614 
	C552.087402,549.476379 538.693115,542.434631 529.834839,531.485046 
	C526.245178,527.047791 521.306274,523.729553 518.430603,518.157898 
	C520.979370,518.318848 521.948608,520.050232 523.145020,521.245178 
	C533.988831,532.075134 544.801636,542.937134 555.512146,553.898560 
	C557.837769,556.278564 560.080688,558.330872 563.683655,557.534546 
	C566.229797,556.971741 567.575562,558.534302 569.139648,560.160034 
	C585.187317,576.840027 601.302795,593.454712 617.496277,610.187866 
	C623.401978,605.897156 626.658875,601.396973 629.612976,596.920654 
	C639.405823,582.081909 647.097656,566.261169 650.060242,548.499512 
	C650.288025,547.133850 650.433167,545.584534 651.960571,545.313416 
	C655.451355,544.693848 655.815979,542.017456 656.145874,539.366760 
	C657.028320,532.276917 657.830017,525.176575 658.602539,518.073730 
	C658.966919,514.723633 657.509399,513.304382 654.001038,513.310791 
	C609.170654,513.392700 564.340027,513.395813 519.509521,513.369446 
	C515.702637,513.367188 514.127869,515.109009 514.032837,518.818176 
	C513.170349,552.457764 513.203369,586.095459 513.770691,619.741028 
	C514.012146,634.060852 513.672668,648.394653 513.394226,662.718201 
	C512.937744,686.206726 513.624817,709.697205 513.737671,733.177185 
	C513.852966,757.151245 513.742493,781.159485 514.643188,805.137573 
	C514.717346,807.110718 514.652954,809.089111 514.652954,811.701782 
	C516.574402,809.396484 515.055786,806.377075 517.937805,804.047974 
	C517.565125,811.379211 516.206604,817.576599 512.981140,823.841675 
	C509.697662,821.323730 509.520630,817.989075 508.918243,815.114441 
	C500.523743,775.056641 493.324493,734.776245 486.671722,694.395325 
	C485.427551,686.843201 483.920868,679.334534 482.597992,671.794861 
	C482.114502,669.039429 480.750793,667.295471 477.914093,666.692200 
	C450.068726,660.770630 426.326416,647.400024 406.348938,627.206848 
	C406.131714,626.987183 405.761475,626.918823 404.836304,626.488525 
	C398.947083,632.200867 392.898163,638.109253 386.797363,643.963501 
	C384.627106,646.046082 386.114532,647.480835 387.493774,648.998718 
	C395.171875,657.448608 404.184296,664.309570 413.627594,670.600586 
	C429.704346,681.310791 447.067627,689.184937 465.890472,693.737305 
	C467.822510,694.204529 469.817841,694.654724 471.580383,695.524780 
	C474.822998,697.125610 477.029694,699.709351 475.966858,703.548889 
	C474.934540,707.277954 472.282043,709.593994 468.209351,709.232422 
	C461.191986,708.609497 454.555573,706.281189 447.934631,704.063965 
	C419.761047,694.629395 395.585388,678.758728 374.177887,657.521240 
	C370.119385,661.459473 366.205353,665.220825 362.335754,669.027344 
	C360.304321,671.025757 362.169647,672.320496 363.344940,673.613403 
	C369.090302,679.933777 375.794128,685.186218 382.546722,690.333435 
	C408.648621,710.230103 437.464874,724.177795 470.041504,729.720154 
	C472.979309,730.219971 475.490631,731.278198 476.889801,734.105530 
	C479.108490,738.588928 476.529541,743.058716 471.459381,743.355591 
	C466.044098,743.672668 460.882385,742.077698 455.742767,740.763916 
	C416.245300,730.668274 382.077454,711.207214 353.391357,682.190613 
	C352.814880,681.607483 352.157501,681.104431 351.530518,680.557617 
	C348.702637,681.094727 347.548767,683.584961 345.670868,685.111389 
	C343.383514,686.970520 341.163513,688.107666 338.670197,685.551331 
	C336.134247,682.951355 336.143250,680.320679 338.551025,677.602722 
	C340.079224,675.877625 342.356445,674.840210 343.460938,672.003601 
	C336.529144,664.275574 329.568848,656.249146 323.639282,647.411011 
	C305.646301,620.592163 293.897156,591.323242 289.036621,559.351501 
	C288.271484,554.318604 290.169342,551.103333 294.053650,550.510559 
	C298.673187,549.805542 301.509491,552.141846 302.335876,557.549011 
	C308.121887,595.406372 324.052643,628.625305 348.257416,658.058655 
	C349.602142,659.693909 350.753632,661.612488 353.197998,662.518188 
	C357.726196,659.252869 361.418823,654.963989 365.244812,650.860046 
	C367.487305,648.454590 364.795563,646.855225 363.525543,645.436218 
	C354.925232,635.827026 347.638977,625.319397 341.381439,614.061218 
	C331.903534,597.009033 325.538086,578.876404 322.374390,559.631897 
	C321.459045,554.063782 323.307526,550.714966 327.511108,549.828857 
	C331.794800,548.925842 335.424255,551.452820 336.582764,556.868469 
	C340.656464,575.911194 347.342682,593.929443 357.084473,610.802246 
	C362.100037,619.489319 368.072571,627.487854 374.524933,635.148010 
	C376.355835,637.321594 378.047058,638.606934 380.621155,635.962585 
	C385.501587,630.948853 390.485443,626.031921 395.539215,621.192688 
	C397.829315,618.999817 397.796692,617.161926 395.712860,614.830688 
	C378.627777,595.716736 368.147339,573.377014 363.450623,548.251526 
	C362.943878,545.540710 361.308319,544.549133 358.659485,544.088623 
	C334.559021,539.899353 310.479065,535.591614 286.396759,531.298096 
	C261.016754,526.773132 235.643066,522.212769 210.261337,517.697632 
	C204.113052,516.603943 197.944000,515.626892 190.999863,514.464905 
	C193.072144,511.804077 195.285812,511.778442 197.230576,511.420990 
	C224.060425,506.489441 250.896378,501.590881 277.737732,496.722260 
	C304.251556,491.913055 330.766541,487.109558 357.298584,482.402679 
	C361.229828,481.705231 363.077789,479.961517 363.987579,475.806793 
	C368.991455,452.956390 378.896362,432.455566 394.380829,414.763367 
	C399.240265,409.211151 398.987976,409.323975 393.945740,404.209412 
	C389.052002,399.245453 384.578766,393.866943 379.631378,388.920990 
	C376.109283,390.957581 374.541199,393.165527 372.902496,395.186401 
	C355.006165,417.256653 342.044006,441.751831 336.334991,469.811310 
	C335.250549,475.141205 331.530579,477.936829 327.304871,476.945496 
	C323.154449,475.971771 321.382477,472.547852 322.349792,467.053467 
	C327.957550,435.201172 342.110565,407.549072 363.577148,383.529297 
	C367.631775,378.992371 367.732574,378.452393 363.344116,374.263947 
	C360.574188,371.620300 357.735260,369.048584 354.905731,366.468262 
	C354.549500,366.143341 354.061829,365.962524 353.294922,365.517639 
	C349.020477,368.647247 345.973572,373.032562 342.841217,377.227020 
	C324.282410,402.078583 310.545410,429.247162 303.838379,459.712219 
	C303.159393,462.796387 302.817749,465.953583 302.272095,469.068604 
	C301.298920,474.624695 298.463745,477.417023 294.397614,476.880096 
	C290.071747,476.308899 287.961121,472.664276 288.868469,466.837433 
	C290.925262,453.629333 294.671661,440.864716 299.291626,428.346008 
	C308.861664,402.414154 322.669250,379.032776 341.500244,358.728943 
	C343.712463,356.343689 343.884918,354.552429 341.357971,352.537231 
	C340.968079,352.226288 340.585846,351.893707 340.255920,351.521606 
	C337.780426,348.729736 334.717987,345.742798 338.600189,342.162720 
	C342.389801,338.668030 345.659088,341.567383 347.892303,344.432892 
	C351.053192,348.488770 353.114990,347.280182 356.136414,344.269989 
	C387.241699,313.280090 425.018829,295.292816 467.892883,287.389465 
	C473.305542,286.391754 477.000488,288.368225 477.781372,292.396759 
	C478.546478,296.343933 475.666565,299.891754 470.497223,300.739075 
	C430.492584,307.296326 396.262451,325.533295 366.150970,352.143616 
	C364.559967,353.549652 362.657318,354.706543 361.993835,356.512268 
	C366.456329,360.984436 370.760498,365.297943 375.282654,369.829926 
	C380.381195,366.681763 384.394073,361.678833 389.322845,357.757111 
	C412.156342,339.589172 437.971527,327.763611 466.256561,321.102753 
	C471.199951,319.938629 475.211761,322.122284 476.152832,326.201935 
	C477.135559,330.462280 474.847168,334.043152 469.744812,335.264008 
	C445.279907,341.117920 422.818298,351.224457 402.821564,366.566620 
	C397.044159,370.999176 391.204376,375.409210 386.716278,380.418274 
	C393.415863,387.552582 399.852539,394.406860 406.388397,401.366791 
	C411.231537,397.179688 415.722351,392.979736 420.537445,389.192047 
	C436.920441,376.304565 455.402466,367.833801 475.838348,363.768188 
	C479.586029,363.022552 481.132385,361.158508 481.659119,357.508850 
	C485.511292,330.818329 490.848480,304.391754 496.105011,277.955017 
	C499.802551,259.358795 502.740753,240.603668 507.580872,222.243454 
	C508.171875,220.001648 508.943542,217.807465 509.824402,215.718750 
	C509.947235,217.671692 510.112396,219.542206 509.772339,221.315826 
	C502.474915,259.374969 495.100006,297.419250 487.793243,335.476593 
	C486.086334,344.367126 484.572876,353.294800 483.080688,361.592072 
	C492.201782,361.592072 500.976349,361.661621 509.748627,361.550873 
	C512.477417,361.516418 512.705444,359.347656 512.632690,357.210724 
	C512.445740,351.721252 512.116943,346.232727 512.085632,340.742432 
	C511.899475,308.100739 511.900757,275.457489 511.565277,242.817551 
	C511.469940,233.540573 511.534760,224.209518 509.996124,214.993713 
M450.501343,460.007355 
	C436.319794,446.037354 422.138214,432.067352 408.059204,418.198395 
	C406.827545,419.036804 406.347504,419.246155 406.025696,419.599548 
	C391.481995,435.571838 382.074280,454.294647 376.363892,475.001007 
	C375.808624,477.014496 375.912506,478.790009 379.186218,480.599579 
	C324.885162,491.385040 271.643616,499.864685 217.352905,510.148224 
	C219.346130,510.423645 220.085434,510.598419 220.828781,510.617737 
	C233.483856,510.946716 246.138611,511.485229 258.795044,511.531189 
	C315.953796,511.738739 373.113068,511.807983 430.272156,511.918091 
	C434.114838,511.925476 437.944000,512.062988 441.687317,513.009338 
	C447.266571,514.419861 453.033905,514.798218 458.572449,513.836243 
	C473.969360,511.161926 489.468353,512.023865 504.937073,511.663300 
	C506.283875,511.631897 507.973633,512.358093 508.940430,510.511902 
	C508.704163,510.076996 508.558533,509.561920 508.227295,509.234802 
	C495.069702,496.239685 481.897186,483.259674 468.719116,470.285309 
	C467.767181,469.348083 466.708588,468.118042 465.338348,468.407623 
	C458.226044,469.910553 454.981354,464.572693 450.501343,460.007355 
M567.442749,453.944763 
	C581.932739,439.780670 596.422729,425.616608 612.198242,410.195892 
	C609.263245,408.129822 607.400208,406.999420 605.741760,405.622589 
	C591.135559,393.496399 575.226501,383.701447 556.976013,378.004913 
	C548.123962,375.241943 548.140381,375.189270 547.061279,384.011536 
	C544.208069,380.024353 544.400208,375.569763 543.816223,371.472137 
	C543.236145,367.402344 541.354065,365.587982 537.424622,365.376526 
	C531.777405,365.072601 526.139526,364.575378 520.490234,364.337494 
	C514.214355,364.073212 514.284241,364.236481 514.030701,370.611969 
	C512.740540,403.051910 514.125488,435.505890 513.452637,467.949005 
	C513.276733,476.431580 513.309692,484.922760 513.459106,493.406250 
	C513.548096,498.457947 514.050598,503.502411 514.427979,509.517609 
	C532.078125,490.311768 550.871948,473.689087 567.442749,453.944763 
M470.895630,585.398438 
	C470.235291,578.539612 469.484924,571.696655 467.941040,565.213440 
	C466.192474,564.870056 465.421143,565.529114 464.713257,566.238159 
	C448.848175,582.129395 433.014191,598.051819 417.108276,613.901978 
	C414.695801,616.305969 414.776733,618.117249 417.192474,620.530212 
	C432.110016,635.430603 449.884521,645.464844 469.883270,651.724182 
	C472.770294,652.627808 475.677368,654.115967 479.606934,653.162354 
	C476.709991,630.710815 473.844452,608.502930 470.895630,585.398438 
M416.549957,411.365967 
	C432.981079,427.868958 449.412231,444.371948 465.843353,460.874969 
	C466.429260,460.585907 467.015167,460.296875 467.601044,460.007843 
	C471.210236,432.017731 474.819458,404.027618 478.471832,375.702576 
	C477.008179,375.871643 476.344696,375.881409 475.714325,376.030792 
	C453.498199,381.296417 434.400330,392.348633 417.505585,407.465271 
	C416.543915,408.325745 415.374481,409.231171 416.549957,411.365967 
M442.965057,573.465515 
	C447.048676,569.051941 451.945648,565.355469 455.957794,559.836609 
	C453.218414,559.209290 451.482666,558.706726 449.711853,558.423645 
	C439.527313,556.795410 429.342621,555.164551 419.142334,553.639160 
	C406.477722,551.745361 393.800049,549.937805 381.123138,548.127380 
	C377.446106,547.602356 375.777008,548.719238 376.869843,552.851746 
	C382.007660,572.279602 390.444641,590.005676 403.232574,605.619751 
	C405.921539,608.902954 407.792053,608.866272 410.735229,605.836853 
	C421.180511,595.085449 431.868103,584.569458 442.965057,573.465515 
M612.595642,423.109253 
	C598.631958,436.999786 584.668274,450.890289 569.703247,465.776917 
	C597.011353,470.029205 622.789612,474.043274 649.674377,478.229614 
	C644.677734,454.243591 634.050415,434.927002 616.954590,416.819641 
	C615.326111,419.258026 614.207092,420.933502 612.595642,423.109253 
z"/>
<path fill="#000000" opacity="1.000000" stroke="none" 
	d="
M256.399536,403.628723 
	C267.794189,408.049377 273.104279,421.679840 268.695648,434.446320 
	C266.764099,440.039673 263.704315,444.652130 257.835938,446.667572 
	C256.034180,447.286407 255.354568,448.575592 254.505066,450.054077 
	C249.613388,458.567566 241.497925,461.280243 232.451752,461.054749 
	C223.297760,460.826569 214.860199,458.383820 210.936539,448.691589 
	C210.381012,447.319397 209.662247,446.668427 208.267090,446.135223 
	C200.217682,443.059296 194.243179,432.730408 195.910995,423.964020 
	C197.498352,415.620667 199.039062,406.938477 208.970184,403.826385 
	C209.635208,403.618011 210.339111,402.802429 210.588623,402.111633 
	C213.332870,394.514099 219.733643,392.169678 226.755402,390.459015 
	C232.328262,389.101349 237.672455,389.929626 242.985153,391.492188 
	C249.266083,393.339569 253.612595,397.394012 256.399536,403.628723 
M245.211945,430.959839 
	C246.969116,433.884125 249.654510,435.891815 252.452927,437.591614 
	C256.013062,439.754120 257.521423,436.766174 258.812622,434.294220 
	C259.689087,432.616241 260.856598,429.861847 257.762604,429.636261 
	C253.623154,429.334381 249.272675,428.205353 245.211945,430.959839 
M211.791290,429.348022 
	C209.946503,429.601807 207.451065,428.583405 206.638199,431.076202 
	C205.818817,433.588928 207.596771,435.430573 209.260025,437.065857 
	C210.527130,438.311676 212.076340,439.029755 213.662720,437.720581 
	C216.361969,435.493042 219.507645,433.651123 221.524750,429.347076 
	C218.127365,429.347076 215.399796,429.347076 211.791290,429.348022 
M208.634323,414.411377 
	C207.713425,416.694489 203.976868,419.641235 208.034317,421.196533 
	C211.697952,422.600830 216.277679,422.191925 220.587448,420.950378 
	C216.657166,414.278473 213.205231,412.270844 208.634323,414.411377 
M228.658081,440.987244 
	C228.391617,439.654236 229.362305,437.980133 226.578659,436.465240 
	C225.083191,438.231781 223.370682,440.209503 221.711105,442.230682 
	C220.583817,443.603607 218.859238,445.030212 220.632431,446.914429 
	C222.392914,448.785034 224.064987,451.585938 226.985901,450.954407 
	C229.423187,450.427460 228.522827,447.668762 228.669586,445.790771 
	C228.772308,444.476257 228.673798,443.146027 228.658081,440.987244 
M241.194382,411.599335 
	C242.601151,408.991638 246.740067,407.413361 245.176346,403.784302 
	C244.025482,401.113373 241.371643,399.424194 237.577454,399.705627 
	C237.154419,404.576416 236.922165,409.216217 237.725830,413.802246 
	C239.529572,414.163055 239.975372,412.874573 241.194382,411.599335 
M228.668106,411.372070 
	C228.661575,408.375031 228.671921,405.377808 228.641678,402.381012 
	C228.625748,400.801636 228.458481,399.126862 226.274475,399.470856 
	C223.837784,399.854675 222.071579,401.424225 220.795731,403.468781 
	C219.596298,405.390869 220.398605,407.231659 221.882248,408.360229 
	C224.016800,409.983917 224.819138,413.572723 228.456802,413.003723 
	C228.567093,412.986481 228.587265,412.392975 228.668106,411.372070 
M245.175797,419.857300 
	C247.283722,421.670929 255.719818,421.522369 259.369354,419.607391 
	C257.204834,411.994019 254.119110,411.001068 248.615082,416.164459 
	C247.528809,417.183472 246.502762,418.266693 245.175797,419.857300 
M245.550293,446.197327 
	C244.807922,441.698578 240.967041,439.895020 237.620422,436.375244 
	C237.076477,442.001038 236.965714,446.568756 237.719818,451.318542 
	C241.265167,450.688873 243.331467,448.867432 245.550293,446.197327 
z"/>
<path fill="#000000" opacity="1.000000" stroke="none" 
	d="
M258.705109,655.764160 
	C266.957092,645.317017 268.114838,645.153687 276.529022,655.449951 
	C280.011932,659.711914 283.122620,661.410278 288.750122,659.412781 
	C293.893463,657.587158 299.639313,658.600220 305.125580,658.795837 
	C307.175293,658.868958 308.886505,659.927856 308.758728,662.118896 
	C308.246429,670.903748 308.198608,679.811829 303.156250,687.630066 
	C299.994293,692.532654 295.893097,696.387390 290.451202,698.471741 
	C287.044159,699.776672 285.969818,701.741699 286.409180,705.307495 
	C287.815643,716.722534 282.149689,725.454407 275.163086,733.583862 
	C273.440735,735.588013 271.444000,735.555298 269.468109,733.850647 
	C261.336761,726.835449 254.515945,718.982788 253.894958,707.584412 
	C253.719696,704.367310 252.634003,702.802246 249.349152,702.312805 
	C234.501343,700.100098 226.309891,685.062378 223.706146,674.046509 
	C223.153259,671.707275 223.863892,669.843811 226.301773,668.776733 
	C233.433975,665.655029 240.818054,663.546753 248.608032,664.879211 
	C252.091614,665.475037 253.802139,664.825562 254.965897,661.466614 
	C255.650131,659.491760 257.282471,657.845398 258.705109,655.764160 
M291.908203,668.354675 
	C281.770355,670.738892 276.054596,678.360168 274.607727,691.422729 
	C285.316223,693.257629 294.658325,686.369934 297.663727,674.424133 
	C299.128113,668.603516 298.885193,668.302368 291.908203,668.354675 
M258.011688,693.700439 
	C259.647705,693.556396 261.398407,693.643372 262.307068,691.272034 
	C260.172943,688.015564 257.877563,684.592102 255.663300,681.117065 
	C251.535507,674.638794 246.027649,672.480896 238.610031,674.456665 
	C235.815369,675.200989 234.518967,676.634644 236.113800,679.493225 
	C240.743744,687.791931 246.980148,693.725525 258.011688,693.700439 
M271.078766,702.372253 
	C264.597260,702.354736 262.670135,704.668579 264.575165,710.802490 
	C265.794983,714.730225 267.878021,718.270691 271.914642,720.830505 
	C275.053619,716.873840 276.254761,712.453796 276.442535,707.846924 
	C276.555664,705.071594 275.325043,702.622131 271.078766,702.372253 
M268.956238,676.266174 
	C270.050049,674.229797 271.253662,672.243530 272.210663,670.144775 
	C273.494476,667.329163 271.443054,665.466370 269.948090,663.558350 
	C269.156952,662.548645 267.996918,661.251099 266.619781,662.229858 
	C263.756775,664.264771 262.550690,667.391846 262.225494,670.756897 
	C261.931885,673.795044 263.445251,676.206116 265.804413,677.980591 
	C267.101471,678.956177 267.880005,677.771790 268.956238,676.266174 
z"/>
<path fill="#000000" opacity="1.000000" stroke="none" 
	d="
M255.639862,580.464478 
	C257.540405,579.697876 259.109711,579.139038 260.640076,578.488586 
	C263.565277,577.245239 265.903595,577.548401 266.965088,580.934265 
	C267.939575,584.042603 268.169128,586.548035 263.928375,587.798218 
	C259.162567,589.203308 254.628998,591.421936 250.044830,593.403320 
	C248.429993,594.101379 246.466843,594.504150 245.706604,597.094177 
	C251.421844,600.562378 257.748749,603.002625 263.866455,605.851440 
	C266.367218,607.015930 268.644562,608.101990 267.518219,611.776306 
	C266.032776,616.622131 265.120850,617.260437 260.478577,615.258362 
	C254.841217,612.826965 249.544174,609.606262 243.080017,607.717041 
	C244.583542,612.445862 245.971878,616.811768 247.359772,621.177795 
	C248.666962,625.289978 248.409439,629.375549 247.242401,633.475525 
	C244.595352,642.774902 238.325516,647.242554 229.162918,646.300842 
	C221.790314,645.543091 216.296738,638.926697 215.708389,630.055237 
	C215.203278,622.439392 217.056396,615.288025 221.166443,607.168152 
	C214.396988,610.143250 208.995331,612.541504 203.572205,614.890198 
	C200.938385,616.030945 198.262009,617.480164 196.554916,613.467163 
	C194.977280,609.758423 196.104187,607.522522 199.754776,606.018127 
	C204.062714,604.242859 208.272842,602.223206 212.481812,600.218079 
	C214.253159,599.374146 216.219666,598.703979 217.249878,596.633545 
	C216.784561,594.327759 214.737793,593.846741 212.954147,593.092346 
	C208.659317,591.276062 204.436996,589.235474 200.026611,587.760010 
	C195.465912,586.234375 195.753922,583.146606 197.071533,579.848572 
	C198.576843,576.080688 201.527695,577.909058 203.866730,578.775452 
	C207.136719,579.986816 210.237000,581.648438 213.464706,582.984985 
	C215.233536,583.717468 216.948303,585.040039 219.112411,584.161987 
	C220.176865,582.154114 218.761978,580.605835 218.177109,578.984131 
	C215.811966,572.426208 214.638687,565.831177 216.743057,558.946472 
	C218.666489,552.653625 224.461655,548.093689 231.195587,547.729370 
	C237.497253,547.388367 243.588516,551.438049 246.195816,557.395020 
	C249.969666,566.017212 247.312119,574.034912 244.160065,582.036133 
	C243.635818,583.366882 242.915268,584.620239 241.919098,586.659119 
	C246.874268,584.425232 251.082657,582.528076 255.639862,580.464478 
M229.367920,637.336243 
	C233.919495,637.964600 237.376495,635.910156 238.359604,631.153137 
	C240.047623,622.985413 236.724884,616.141724 231.813751,608.912964 
	C227.465836,614.476135 225.537506,620.060181 224.922745,626.196777 
	C224.504105,630.375793 225.407257,634.083862 229.367920,637.336243 
M238.425720,569.856018 
	C238.896042,566.520569 239.096619,563.205994 237.190109,560.189819 
	C235.810654,558.007568 234.088257,556.122559 231.252579,556.304077 
	C228.410828,556.485962 227.020981,558.677795 225.833054,560.920349 
	C223.520584,565.285828 226.118011,579.321289 232.036026,583.244446 
	C236.133118,580.066101 236.747482,575.146545 238.425720,569.856018 
M236.351929,591.970581 
	C231.062164,588.616150 225.900589,590.178589 225.285400,595.362793 
	C224.864090,598.912964 226.486313,601.502075 229.560059,603.069031 
	C232.160385,604.394592 234.324432,603.337158 236.198212,601.336182 
	C238.805374,598.552063 239.539932,595.680115 236.351929,591.970581 
z"/>
<path fill="#000000" opacity="1.000000" stroke="none" 
	d="
M295.334137,358.495605 
	C290.964813,360.150848 288.995514,362.753815 288.044128,367.270477 
	C285.973236,377.101807 276.251923,383.414429 265.827454,382.675293 
	C255.687866,381.956390 247.854538,374.803528 246.782761,364.868042 
	C246.500061,362.247437 245.401947,361.114563 243.140762,360.262634 
	C235.240829,357.286285 231.132965,351.393097 231.269974,343.036438 
	C231.397339,335.266846 234.903778,329.251495 242.381104,326.211823 
	C245.359909,325.000885 246.508850,323.215637 246.882965,319.926392 
	C248.108505,309.151123 257.220093,301.828705 268.534729,301.998413 
	C279.242065,302.159027 287.704041,310.040375 288.436249,321.029236 
	C288.625031,323.862549 290.070892,324.553528 292.114075,325.506653 
	C306.805450,332.359985 308.524933,348.577728 295.334137,358.495605 
M243.303360,344.884888 
	C244.388901,348.557190 247.125275,350.881042 250.657516,350.480011 
	C261.672455,349.229187 272.622955,350.974304 283.594604,350.604614 
	C288.729370,350.431580 292.896301,346.510956 292.629547,342.443634 
	C292.346588,338.128876 288.130341,334.567322 282.852753,335.267456 
	C272.705292,336.613678 262.659485,336.367371 252.521835,335.278046 
	C246.518326,334.632935 243.421341,337.924316 243.303360,344.884888 
M258.266327,320.472198 
	C258.691833,323.819824 260.923187,325.449493 263.966583,325.614227 
	C268.160278,325.841217 272.677460,326.930267 276.089478,323.189423 
	C277.656128,321.471771 277.530182,319.521576 276.157288,317.761047 
	C273.647827,314.542969 270.337097,312.813873 266.216400,313.424500 
	C262.456726,313.981598 259.219055,315.471832 258.266327,320.472198 
M258.416443,365.930176 
	C262.703125,372.421570 269.857330,373.577393 274.592529,368.505219 
	C275.845947,367.162628 276.990570,365.660187 276.383118,363.642426 
	C275.737274,361.497131 274.118927,360.378693 271.961700,360.270447 
	C268.997498,360.121643 266.019562,360.066895 263.054260,360.168823 
	C259.927094,360.276367 258.152344,361.885193 258.416443,365.930176 
z"/>
<path fill="#000000" opacity="1.000000" stroke="none" 
	d="
M607.054321,168.737976 
	C654.734619,180.500580 697.306580,201.663254 735.223755,232.200943 
	C736.388062,233.138657 737.614563,234.053619 738.572815,235.182358 
	C741.192993,238.268631 742.251648,241.541290 739.057129,244.950012 
	C736.077576,248.129364 732.803955,247.813904 729.706909,245.332077 
	C715.916992,234.281693 701.686157,223.867798 686.319885,215.093430 
	C650.807312,194.815170 612.987183,181.276672 572.280823,176.219589 
	C569.476318,175.871170 566.672241,175.518341 563.869934,175.153122 
	C558.772217,174.488770 556.327087,171.821442 556.727051,167.378235 
	C557.110840,163.114227 559.609253,161.005478 564.887451,161.584213 
	C578.935669,163.124603 592.812012,165.783737 607.054321,168.737976 
z"/>
<path fill="#000000" opacity="1.000000" stroke="none" 
	d="
M292.073364,247.174011 
	C284.430908,243.956100 283.829865,238.508606 290.507233,233.121262 
	C303.227142,222.858795 316.741730,213.733414 330.835388,205.432007 
	C351.439911,193.295609 373.098297,183.541428 395.771088,176.000168 
	C416.189514,169.208755 437.209259,165.005264 458.428101,161.783829 
	C465.715363,160.677490 468.935211,162.625229 469.307190,167.181229 
	C469.702057,172.017395 466.940155,174.414871 460.066498,175.201309 
	C423.241821,179.414612 388.661224,190.913895 355.680267,207.510941 
	C335.389099,217.722107 316.177185,229.652664 298.632233,244.156250 
	C296.811005,245.661758 294.944122,247.027237 292.073364,247.174011 
z"/>
<path fill="#000000" opacity="1.000000" stroke="none" 
	d="
M633.195557,795.878418 
	C630.791870,813.668274 621.019531,824.093689 604.864014,826.534607 
	C588.365234,829.027527 572.285095,817.074646 569.808899,800.477051 
	C567.524414,785.164429 576.055603,770.570068 590.294495,765.432190 
	C605.153992,760.070374 621.247192,765.897583 629.106628,779.655884 
	C631.870239,784.493774 633.237427,789.811462 633.195557,795.878418 
M619.219543,783.955994 
	C614.717651,785.724487 609.176025,785.167358 604.482056,789.800232 
	C609.410217,791.386902 613.070068,790.936401 616.645325,791.098450 
	C618.695068,791.191467 621.379150,792.213928 622.378906,789.605042 
	C623.225830,787.394714 621.729370,785.500427 619.219543,783.955994 
M580.187256,787.619690 
	C579.613586,789.217041 579.466492,790.804626 581.710327,790.872131 
	C585.862671,790.997192 590.023254,790.913147 594.178772,790.834351 
	C595.431091,790.810669 596.509338,790.221802 596.550354,788.782104 
	C596.598389,787.094177 595.412354,786.630188 593.967712,786.350952 
	C591.041687,785.785339 588.046814,785.361511 585.252869,784.385437 
	C582.404419,783.390442 581.246826,784.651123 580.187256,787.619690 
M584.884277,799.295959 
	C583.312683,799.516785 581.590088,798.820251 580.075012,800.091614 
	C580.065063,802.494690 580.703735,804.752747 582.757996,806.076843 
	C584.717590,807.339783 594.843567,802.926208 596.388733,800.231506 
	C592.939880,798.475037 589.267639,799.679016 584.884277,799.295959 
M615.808044,805.252197 
	C620.902466,806.522827 621.692810,805.870728 622.118530,799.458313 
	C616.805786,799.721497 611.448425,798.116333 605.757202,800.616943 
	C608.482727,804.317810 612.278503,803.555847 615.808044,805.252197 
M594.029602,816.346313 
	C598.627075,815.803406 596.391235,813.094482 596.092224,810.666382 
	C593.333984,810.971130 591.013489,811.357483 588.990601,812.923828 
	C589.979553,814.927246 591.827637,815.311523 594.029602,816.346313 
M605.472961,812.313416 
	C605.444458,813.709656 604.807251,815.270325 606.749329,816.373230 
	C608.801147,815.562256 611.278198,815.308228 613.023743,812.863770 
	C610.568237,811.345337 608.317871,810.516785 605.472961,812.313416 
M606.726135,779.011597 
	C608.703674,778.621033 610.878967,778.637512 612.387085,776.315796 
	C610.269531,775.027100 608.606567,773.451111 606.036377,774.159668 
	C605.201721,775.784912 605.006226,777.297058 606.726135,779.011597 
M593.113037,774.595825 
	C592.150513,775.256592 590.344910,774.868347 590.342651,776.844482 
	C592.032532,778.322571 593.857727,779.370667 596.070862,778.106567 
	C596.995117,777.578674 597.007629,776.397949 596.823792,775.416199 
	C596.423523,773.279114 594.938049,774.223755 593.113037,774.595825 
z"/>
<path fill="#000000" opacity="1.000000" stroke="none" 
	d="
M675.972412,818.945312 
	C694.019897,809.760864 710.390869,798.665710 726.107178,786.558655 
	C726.766541,786.050720 727.413879,785.526794 728.081238,785.029663 
	C733.335693,781.115967 736.676086,780.961182 739.389099,784.498840 
	C742.230164,788.203613 741.166199,792.131104 736.337646,795.964233 
	C714.722717,813.122803 691.422974,827.519165 666.118408,838.579468 
	C638.388977,850.699524 609.583313,859.113831 579.583618,863.329224 
	C575.470581,863.907166 571.379517,864.658997 567.256287,865.142456 
	C560.590149,865.923950 557.213562,864.124634 556.720398,859.743896 
	C556.181702,854.957581 559.200623,852.275818 565.879150,851.749451 
	C576.160706,850.938904 586.333313,849.271912 596.389771,847.141602 
	C624.019165,841.288635 650.460754,831.955261 675.972412,818.945312 
z"/>
<path fill="#000000" opacity="1.000000" stroke="none" 
	d="
M463.403259,852.144287 
	C468.011902,853.384216 470.203491,856.056702 469.093750,860.382812 
	C467.968811,864.768127 464.400055,865.629456 460.403168,865.159790 
	C397.739441,857.795166 341.380005,834.967529 291.510132,796.246033 
	C290.592621,795.533691 289.685089,794.782898 288.895966,793.935364 
	C286.032959,790.860596 285.433960,787.221008 288.019196,783.988220 
	C290.584167,780.780823 294.289520,780.987915 297.479980,783.252197 
	C303.588470,787.587524 309.400391,792.343933 315.546173,796.622864 
	C342.794800,815.594482 372.142151,830.219299 404.006653,839.865784 
	C423.340240,845.718750 442.966003,849.779785 463.403259,852.144287 
z"/>
<path fill="#000000" opacity="1.000000" stroke="none" 
	d="
M765.199097,446.248352 
	C761.660889,447.615234 759.861145,445.569641 758.213623,443.405457 
	C752.477173,435.869629 752.256958,422.351410 757.825378,414.657684 
	C759.452820,412.409210 761.237488,409.560883 764.641357,410.938873 
	C768.357544,412.443420 769.087524,415.560516 767.873413,419.242126 
	C767.624451,419.997223 767.575073,420.818085 767.171021,423.077759 
	C773.691467,418.238647 779.952026,419.492462 786.688965,421.493561 
	C787.413452,413.012360 786.932190,405.222839 786.852539,397.445404 
	C786.830383,395.280304 786.669983,393.115692 786.679504,390.951355 
	C786.701416,385.946442 788.839478,383.675812 793.452576,383.654724 
	C797.860718,383.634552 800.241516,386.062897 800.261536,391.008453 
	C800.294556,399.170197 800.132996,407.332611 800.097595,415.494934 
	C800.090454,417.126892 799.734436,418.826019 800.935242,420.877075 
	C806.512939,419.736969 812.479126,417.869080 817.334717,422.696289 
	C819.655090,420.454926 818.535950,418.356262 818.648560,416.490051 
	C818.804626,413.902069 819.743958,411.915070 822.199402,411.003082 
	C824.380615,410.192902 826.063965,411.443268 827.532104,412.882294 
	C834.814514,420.020538 834.056274,438.924744 826.292175,445.506470 
	C824.405640,447.105682 822.591003,447.504761 820.406189,446.130493 
	C818.203552,444.744995 817.115845,443.007050 817.624146,440.300323 
	C818.146484,437.518738 820.373962,435.335754 820.366089,432.358429 
	C818.890747,430.448761 816.732178,431.029175 813.970947,430.440369 
	C816.228882,432.992310 816.176270,435.146973 814.434692,437.282990 
	C812.591858,439.543243 810.121765,439.730499 807.610535,439.311951 
	C805.202698,438.910675 802.861816,438.107941 800.595764,437.509155 
	C798.719238,439.299835 799.935303,441.174011 799.938538,442.889709 
	C799.952820,450.384460 800.230530,457.881866 800.095825,465.372620 
	C800.006714,470.326294 797.434998,472.889008 793.274536,472.947479 
	C789.347412,473.002655 786.736389,470.094269 786.707886,465.179230 
	C786.664429,457.683990 786.863342,450.187683 786.897339,442.691528 
	C786.905396,440.915649 787.395081,439.042328 786.272095,437.395111 
	C771.489624,440.106628 768.872131,439.039154 771.069153,431.159241 
	C769.712891,429.994049 768.190308,430.132751 767.086182,431.271423 
	C765.493042,432.914307 766.475220,434.784363 767.437073,436.313446 
	C769.904236,440.235321 769.667297,443.498199 765.199097,446.248352 
M791.721313,430.454285 
	C793.511719,431.954193 794.427063,431.099396 794.766296,429.217041 
	C794.953491,428.178314 794.560242,426.970917 793.437256,426.882507 
	C791.268127,426.711761 791.143555,428.251160 791.721313,430.454285 
z"/>
<path fill="#000000" opacity="1.000000" stroke="none" 
	d="
M379.385681,264.815979 
	C383.059692,270.762054 383.022949,276.404175 378.506622,281.238281 
	C371.773438,288.445221 363.525116,286.882416 354.813995,284.151031 
	C355.735168,286.886139 356.650909,289.302673 357.361115,291.778198 
	C358.732513,296.558441 358.857330,301.300140 356.445007,305.849243 
	C353.304443,311.771515 348.412750,314.541443 342.739166,313.628510 
	C336.906006,312.689911 332.748657,308.216980 331.653107,301.771027 
	C330.669434,295.983429 332.489441,290.618347 334.419098,284.945068 
	C330.403778,284.623383 327.045349,286.488892 323.379517,286.393250 
	C314.031097,286.149475 307.868652,281.041687 307.794891,273.036560 
	C307.722961,265.231964 313.972992,259.382874 322.838470,258.787903 
	C326.516754,258.541107 329.933289,260.147430 333.914642,260.234528 
	C332.384918,254.749939 330.420715,249.661606 331.607086,243.991165 
	C333.245270,236.161102 338.502869,231.030914 345.326172,231.299530 
	C352.405518,231.578232 357.519196,237.188766 358.205780,245.378571 
	C358.636292,250.514053 356.910278,255.180298 354.766968,260.212280 
	C363.784576,258.186279 372.289734,257.144592 379.385681,264.815979 
M334.575867,274.419403 
	C336.173889,272.411469 335.176270,270.739868 333.406128,269.955597 
	C329.934814,268.417603 326.314056,267.012115 322.402954,267.239899 
	C318.706512,267.455261 316.130737,269.597809 316.687225,273.258179 
	C317.197021,276.611481 320.041107,278.754944 323.635376,278.134766 
	C327.192352,277.520935 330.820984,276.778473 334.575867,274.419403 
M370.618500,268.757782 
	C365.277161,265.131226 360.265564,268.154999 355.494720,269.988678 
	C352.805603,271.022247 352.769196,273.805786 355.823883,275.162445 
	C359.002747,276.574280 362.373596,277.617767 365.880768,277.868774 
	C368.567352,278.061096 370.820953,276.917725 372.213593,274.630737 
	C373.396729,272.687775 372.880951,270.794159 370.618500,268.757782 
M343.243622,240.654770 
	C338.064911,245.543030 338.721680,254.105011 345.168671,260.446838 
	C347.787994,256.045044 350.093109,251.663254 349.537476,246.562790 
	C349.206085,243.520813 348.212158,240.208664 343.243622,240.654770 
M349.615967,298.191803 
	C349.096161,293.297119 347.305450,288.904236 344.872101,284.332031 
	C340.801178,287.798157 340.664673,292.074127 339.855469,296.040405 
	C339.081635,299.833069 340.172699,303.685608 343.705597,304.763641 
	C347.622894,305.959015 348.388794,301.754425 349.615967,298.191803 
z"/>
<path fill="#000000" opacity="1.000000" stroke="none" 
	d="
M813.923584,338.028107 
	C808.387512,328.654907 801.854919,320.428894 795.631592,311.979675 
	C791.890259,306.900269 791.783691,302.421509 795.007141,299.962677 
	C798.500244,297.298126 802.691345,298.585449 806.778015,303.766357 
	C838.930481,344.527832 859.111450,390.464386 866.387146,441.956390 
	C867.154053,447.383850 867.896179,452.823364 868.366089,458.281708 
	C868.797607,463.294312 866.322632,466.661987 862.331360,467.118896 
	C858.696716,467.534912 855.461609,464.471161 855.080688,459.211761 
	C854.224548,447.389038 852.247437,435.775085 849.681946,424.226105 
	C842.857727,393.506134 830.636475,365.035339 813.923584,338.028107 
z"/>
<path fill="#000000" opacity="1.000000" stroke="none" 
	d="
M184.444626,360.493713 
	C194.105301,340.447296 205.449799,321.871033 218.909012,304.620636 
	C223.709869,298.467468 227.663986,297.203949 231.261841,300.142273 
	C234.975677,303.175323 234.435547,307.110657 229.681290,313.199493 
	C199.984955,351.231750 181.577515,394.226807 173.389786,441.678589 
	C172.458969,447.073212 171.967636,452.542725 171.210953,457.968964 
	C171.005203,459.444275 170.715149,460.938080 170.219223,462.336700 
	C169.040436,465.661072 166.804688,467.731750 163.061066,467.182068 
	C159.286133,466.627838 157.557983,463.974518 157.795395,460.443878 
	C158.218292,454.155060 158.825165,447.861633 159.735199,441.625580 
	C163.256363,417.496490 169.929794,394.228821 179.315018,371.736481 
	C180.852066,368.052887 182.625977,364.468109 184.444626,360.493713 
z"/>
<path fill="#000000" opacity="1.000000" stroke="none" 
	d="
M795.116150,596.763550 
	C798.982788,596.947815 796.372559,600.587158 798.319763,602.309143 
	C806.124634,594.957520 815.682922,590.358032 825.387207,586.036743 
	C831.404907,583.356934 833.421570,584.643127 833.285217,591.129089 
	C833.155945,597.278076 833.681458,603.436401 832.556396,609.575989 
	C829.987122,623.597107 819.862244,634.188782 805.829102,637.364929 
	C803.048401,637.994324 800.009155,637.896057 798.783264,641.766235 
	C797.986023,644.283386 793.794495,644.024170 792.453857,641.295044 
	C791.228149,638.799683 789.321960,638.022644 787.022095,637.512146 
	C768.813599,633.469910 758.975586,622.085144 757.935364,603.357666 
	C757.594055,597.213135 757.837646,591.025513 758.036377,584.864685 
	C758.235474,578.691528 760.720459,577.301208 765.950623,580.536682 
	C771.046753,583.689270 775.906677,587.221680 780.904785,590.535339 
	C785.913086,593.855835 790.197937,597.978516 794.207031,602.776794 
	C794.504456,600.579468 794.745239,598.800598 795.116150,596.763550 
M781.175354,604.326294 
	C777.376648,601.496826 773.774353,598.337280 769.157349,596.654846 
	C763.874512,614.908020 779.543335,627.743225 790.215027,627.513123 
	C792.702148,617.949158 788.937683,610.721680 781.175354,604.326294 
M821.190491,612.526367 
	C822.586975,608.767090 823.335815,604.964539 822.181152,600.972595 
	C805.801758,604.474060 797.025208,615.817261 801.409363,628.497559 
	C810.176758,626.263306 817.070190,621.786194 821.190491,612.526367 
z"/>
<path fill="#000000" opacity="1.000000" stroke="none" 
	d="
M712.249573,267.953339 
	C711.361877,285.967224 697.924438,298.626343 680.624390,298.235229 
	C663.413452,297.846100 649.595703,283.174530 650.444519,266.465240 
	C651.296021,249.703430 664.273376,236.741608 681.581848,236.686462 
	C698.475586,236.632645 711.769287,249.986801 712.249573,267.953339 
M689.687561,263.137848 
	C693.426392,263.448334 697.221924,264.485168 700.784424,262.486572 
	C700.062805,255.065186 693.949219,249.035126 686.580688,248.283386 
	C685.444641,251.299942 685.090942,257.672089 685.748169,260.423553 
	C686.166687,262.175873 687.257690,262.890411 689.687561,263.137848 
M676.588928,249.709305 
	C676.380310,248.240814 675.491638,247.873566 674.115723,248.031342 
	C669.009521,248.616913 662.195557,256.278412 661.894104,261.831329 
	C674.119690,265.838165 676.921448,263.876221 676.684204,251.473846 
	C676.677856,251.143265 676.663086,250.812836 676.588928,249.709305 
M689.033752,272.119263 
	C684.787415,274.305237 684.067627,279.620972 687.043518,286.817413 
	C694.777954,285.237152 700.355164,279.539948 700.781921,272.605988 
	C697.206421,271.751465 693.550354,272.044495 689.033752,272.119263 
M665.111450,271.580139 
	C661.282959,271.917633 660.692383,273.826569 662.527466,276.908966 
	C664.861267,280.828827 667.938171,283.958252 672.116150,285.915344 
	C674.700989,287.126221 676.125183,286.367432 676.653076,283.502960 
	C678.307190,274.526337 676.844360,272.488373 667.867615,271.577911 
	C667.213013,271.511475 666.550049,271.527985 665.111450,271.580139 
z"/>
<path fill="#000000" opacity="1.000000" stroke="none" 
	d="
M410.494873,778.625244 
	C419.001831,767.830688 430.394470,763.841003 442.005463,767.362671 
	C452.788940,770.633423 460.938904,781.202515 462.145386,793.480713 
	C463.652313,808.816223 450.119751,823.350464 433.677795,824.055664 
	C419.539764,824.662048 405.946045,811.509155 405.648651,797.002441 
	C405.515930,790.529114 406.680725,784.424377 410.494873,778.625244 
M437.905640,788.864380 
	C442.168823,792.464905 446.930634,791.578918 451.766693,790.903748 
	C451.241699,784.572937 450.298187,783.887878 445.191223,785.718567 
	C442.870972,786.550293 440.570587,787.437378 437.905640,788.864380 
M451.071014,799.907654 
	C446.966339,798.359314 442.782104,799.359924 438.220612,798.773865 
	C439.143921,803.677124 443.037109,803.145386 445.571960,804.381409 
	C449.408325,806.252136 451.609558,805.072571 451.071014,799.907654 
M420.356720,791.054443 
	C423.119141,790.783691 426.313141,792.768127 428.899536,789.200195 
	C426.604523,786.598572 423.235687,786.678345 420.460388,785.627808 
	C418.173462,784.762268 415.962250,785.183838 415.528595,788.059998 
	C415.052094,791.220093 417.668915,790.745605 420.356720,791.054443 
M415.473907,801.188293 
	C415.811798,803.312439 416.825867,805.490173 419.085785,805.018616 
	C422.684113,804.267639 426.563629,803.509644 428.883820,799.809082 
	C424.352325,799.757019 419.872314,797.791626 415.473907,801.188293 
M426.131592,779.414673 
	C430.305542,781.130188 429.579803,778.509583 429.442627,776.016724 
	C425.759308,776.718262 425.759308,776.718262 426.131592,779.414673 
M426.968842,813.608398 
	C429.888702,813.781067 429.818390,812.245911 429.039886,810.000732 
	C427.110382,810.179504 425.387756,810.292664 423.990662,812.176025 
	C424.968292,812.722351 425.665955,813.112183 426.968842,813.608398 
M437.789307,811.039124 
	C437.317627,812.006714 437.083069,813.298401 438.097198,813.688477 
	C439.732147,814.317383 441.326141,813.882812 442.108582,811.990295 
	C441.173096,810.336365 439.830139,810.125610 437.789307,811.039124 
z"/>
<path fill="#000000" opacity="1.000000" stroke="none" 
	d="
M715.054443,768.543213 
	C704.666626,770.996948 696.351624,767.590942 688.673340,760.652649 
	C685.461609,765.606506 682.386780,770.210022 677.000916,772.828003 
	C668.473755,776.972717 660.241333,775.965698 651.901245,772.625977 
	C649.075378,771.494385 648.824890,769.358643 649.733337,766.889526 
	C653.593140,756.398132 659.188599,747.404053 670.359314,743.285461 
	C671.445496,742.885010 672.506653,742.407654 673.548096,741.901489 
	C673.806335,741.776001 673.942017,741.398254 674.409607,740.760925 
	C669.133911,732.355591 668.872192,723.106140 671.449036,713.605835 
	C672.904236,708.240906 676.139099,706.848267 680.688110,710.103821 
	C688.850952,715.945862 695.035217,723.158325 694.343262,734.084778 
	C694.130371,737.446655 695.151062,738.744385 698.747131,738.872253 
	C711.723267,739.333801 720.514648,746.983582 727.976562,756.659973 
	C729.746765,758.955505 729.321899,760.934387 726.987610,762.616333 
	C723.449646,765.165649 719.723022,767.320984 715.054443,768.543213 
M667.124512,766.614868 
	C677.108643,763.965210 682.456116,757.507324 681.277222,749.523315 
	C672.248840,750.141724 662.591980,757.874573 661.168823,765.649963 
	C662.666199,767.132080 664.586670,766.475952 667.124512,766.614868 
M692.480347,750.453491 
	C700.475525,760.007629 708.139160,762.565369 715.892761,758.267395 
	C713.932373,751.583679 700.481812,746.080811 694.141663,747.578186 
	C692.948975,747.859802 691.831909,748.236450 692.480347,750.453491 
M685.810303,731.768677 
	C685.093201,727.467163 683.283020,723.890564 679.383362,721.166748 
	C677.568237,727.919373 680.168213,735.228821 685.063721,737.818054 
	C685.998901,736.152893 685.868225,734.343140 685.810303,731.768677 
z"/>
<path fill="#000000" opacity="1.000000" stroke="none" 
	d="
M782.170532,351.220459 
	C776.710266,346.812408 770.882690,348.394348 765.180725,349.146637 
	C763.870178,349.319519 763.205139,350.456970 763.256653,351.723114 
	C763.469604,356.951691 762.004578,362.296265 765.103516,367.304749 
	C767.282349,370.826294 766.184631,374.521667 763.745605,377.543823 
	C761.315186,380.555267 757.865417,381.202179 754.203918,380.234680 
	C749.366028,378.956451 746.731750,372.586090 749.384827,366.882599 
	C751.589417,362.143097 750.693298,357.425964 750.864990,352.669739 
	C750.954773,350.182465 749.591187,348.913666 747.152588,349.092499 
	C741.353088,349.517883 735.379028,347.591248 729.907349,351.899933 
	C726.781616,354.361298 722.815308,353.096100 720.052490,349.979126 
	C717.124817,346.676178 716.868164,341.401703 719.499939,337.922272 
	C722.254883,334.279907 726.451294,332.757904 730.089539,335.064880 
	C735.594604,338.555511 741.313660,337.338440 747.016541,337.643768 
	C749.434692,337.773224 750.955872,336.636108 750.831177,334.148193 
	C750.577087,329.080811 751.655701,324.058350 749.326050,318.961029 
	C745.951416,311.577515 750.800293,304.345734 758.004639,305.031616 
	C764.299805,305.630920 768.316711,311.855011 765.223633,317.401550 
	C761.991150,323.198303 763.486633,329.060333 763.348633,334.939453 
	C763.318970,336.202850 763.905884,337.511566 765.239075,337.470856 
	C770.634583,337.306061 776.157349,338.966736 781.376770,336.040283 
	C786.396179,333.225983 791.115295,333.827026 794.059570,337.487549 
	C796.856812,340.965393 797.194275,344.791809 794.818237,348.624756 
	C792.280579,352.718384 788.407410,353.525238 782.170532,351.220459 
z"/>
<path fill="#000000" opacity="1.000000" stroke="none" 
	d="
M436.863434,267.213257 
	C423.293854,271.385590 411.186920,265.734131 405.851135,253.040024 
	C400.704865,240.796768 406.200378,226.473892 418.713989,219.998749 
	C429.146362,214.600571 440.506348,211.801605 451.759705,208.784470 
	C455.682587,207.732697 459.528381,205.984909 463.724884,206.195251 
	C465.086731,209.279633 463.565399,211.805008 463.015411,214.268875 
	C460.878113,223.843933 458.543488,233.381195 456.012207,242.860413 
	C453.168243,253.510452 448.502533,262.893860 436.863434,267.213257 
M418.878021,253.578842 
	C419.402954,253.987061 419.919769,254.406189 420.454041,254.801804 
	C425.916382,258.846649 431.910278,258.783508 437.435120,254.627594 
	C442.328430,250.946716 444.466919,244.845917 442.647858,239.756302 
	C440.242126,233.025146 434.407898,228.836594 427.916595,229.290665 
	C416.923401,230.059647 410.708710,243.672318 418.878021,253.578842 
z"/>
<path fill="#000000" opacity="1.000000" stroke="none" 
	d="
M203.947083,674.080933 
	C206.713043,679.059204 209.421768,683.652954 211.852570,688.389404 
	C214.302719,693.163513 213.667068,696.392578 210.101654,698.344360 
	C205.771683,700.714661 202.936874,698.525208 200.399338,695.117065 
	C196.896210,690.411987 194.377991,685.142944 191.560883,680.053772 
	C176.763351,653.322205 167.288605,624.651917 161.053329,594.861084 
	C159.661331,588.210388 159.058624,581.392578 158.143356,574.644714 
	C157.458893,569.598511 159.271088,566.479187 163.178970,565.798889 
	C167.291412,565.082947 170.594040,567.702820 171.236298,572.681641 
	C174.316116,596.556580 180.582657,619.604919 189.167130,642.040344 
	C193.331741,652.924561 198.145187,663.534058 203.947083,674.080933 
z"/>
<path fill="#000000" opacity="1.000000" stroke="none" 
	d="
M864.324341,599.170593 
	C858.691833,627.019836 849.384583,653.124146 836.299316,677.859314 
	C833.187988,683.740662 829.707703,689.430420 826.297180,695.148682 
	C824.183655,698.692383 821.152527,700.474792 817.051208,698.652466 
	C813.598877,697.118530 812.463013,693.143738 814.791870,688.671875 
	C820.328003,678.041382 826.397644,667.692200 831.391541,656.774048 
	C843.098877,631.177917 850.743774,604.406494 854.772522,576.574097 
	C855.034180,574.766846 855.408325,572.966919 855.866394,571.198914 
	C856.890625,567.246094 859.406799,565.126709 863.559631,565.840759 
	C867.567139,566.529846 869.031433,569.562805 868.765747,573.208313 
	C868.452271,577.509521 867.721680,581.790710 866.981445,586.047485 
	C866.241272,590.303955 865.265869,594.519470 864.324341,599.170593 
z"/>
<path fill="#000000" opacity="1.000000" stroke="none" 
	d="
M339.031982,765.390503 
	C324.513733,769.805420 310.583679,762.509827 302.397858,751.467712 
	C300.000549,748.233948 301.149750,745.908264 304.764557,744.552612 
	C312.568024,741.626038 320.551575,740.641479 328.785614,742.263733 
	C330.242249,742.550659 331.697174,742.846375 332.872192,743.081787 
	C334.679108,742.273987 334.609680,740.792603 334.935394,739.547791 
	C337.335266,730.376099 343.358887,723.826660 350.470398,718.076965 
	C353.060486,715.982910 355.560791,715.466492 357.467865,718.963928 
	C364.871613,732.541931 354.225067,759.852783 339.031982,765.390503 
M330.927307,756.804199 
	C331.978546,756.658386 333.292023,757.214172 333.856995,755.735291 
	C328.650452,750.564453 322.054230,749.001587 317.372559,751.815125 
	C320.975067,755.484558 323.426819,756.436035 330.927307,756.804199 
M346.646423,736.350342 
	C344.021484,742.557007 344.021484,742.557007 345.049469,746.247192 
	C348.155975,742.039795 348.228210,741.659363 346.646423,736.350342 
z"/>
<path fill="#000000" opacity="1.000000" stroke="none" 
	d="
M593.400513,265.478333 
	C587.261353,260.125580 582.968384,253.139877 575.083984,249.580109 
	C574.734497,246.150925 574.143860,242.270126 575.755005,238.182968 
	C579.958374,238.621780 583.465637,240.389420 587.042786,241.793091 
	C586.245544,247.276352 586.425232,247.657028 591.754578,251.097733 
	C591.754578,244.957840 591.760803,239.237457 591.751526,233.517090 
	C591.747803,231.219055 589.791870,230.687836 588.305603,229.674759 
	C583.208801,226.200714 580.970703,220.513428 582.144348,214.965027 
	C583.547974,208.329208 588.039734,205.171951 594.223633,203.948273 
	C599.773254,202.850128 605.651733,205.731445 608.670349,210.770004 
	C612.095337,216.486832 610.807129,224.698532 605.015442,228.663925 
	C601.679260,230.948105 600.976013,233.501038 601.066467,237.010742 
	C601.184631,241.595184 601.095398,246.184967 601.095398,251.404205 
	C605.049744,248.966049 608.347717,247.047729 604.345581,242.493210 
	C607.684509,239.862534 611.372498,239.371979 614.789307,238.252563 
	C617.042542,237.514389 617.959900,238.990265 618.055115,240.818390 
	C618.226501,244.108704 618.103516,247.414352 618.103516,251.073273 
	C615.315369,250.816986 613.407715,251.573822 611.568604,253.598999 
	C607.660095,257.903046 603.161255,261.664581 599.065552,265.807831 
	C597.049194,267.847565 595.421143,267.753387 593.400513,265.478333 
M591.670776,215.168091 
	C590.076355,217.400696 589.928528,219.609695 592.560730,220.981293 
	C595.037292,222.271835 597.778198,222.182861 599.861816,220.091400 
	C601.485352,218.461731 601.144165,216.412842 599.760498,214.720596 
	C597.950195,212.506531 595.716309,212.058868 593.233948,213.671631 
	C592.825684,213.936905 592.484741,214.305893 591.670776,215.168091 
z"/>
<path fill="#000000" opacity="1.000000" stroke="none" 
	d="
M335.492249,778.590698 
	C343.825195,762.306213 355.628235,750.932434 374.059174,748.149475 
	C380.330017,747.202637 386.648590,747.292480 392.899200,748.696899 
	C395.522400,749.286316 396.960541,750.390869 396.517181,753.496765 
	C394.213287,769.635437 381.380768,784.645874 366.218140,788.516052 
	C359.620941,790.199951 352.970581,789.627930 346.509460,787.829651 
	C343.483063,786.987366 341.227112,786.922180 338.991211,789.489746 
	C337.321838,791.406799 334.855652,792.891663 332.362885,791.080139 
	C329.755524,789.185303 331.842926,786.830872 332.576416,784.794983 
	C333.305573,782.771057 334.391571,780.875732 335.492249,778.590698 
M365.485107,760.981873 
	C357.848877,764.310486 352.019196,769.658630 347.361481,776.517639 
	C353.719482,780.697144 361.195038,780.837402 368.944427,776.790405 
	C376.676178,772.752686 382.484924,767.019470 384.485168,757.650208 
	C377.652863,756.617249 371.828583,758.134399 365.485107,760.981873 
z"/>
<path fill="#000000" opacity="1.000000" stroke="none" 
	d="
M497.505157,167.533417 
	C493.849915,165.713974 493.913788,162.550827 493.883362,159.587845 
	C493.782379,149.760544 493.763580,139.931351 493.842133,130.103912 
	C493.867310,126.954277 493.867249,123.439659 497.552368,122.101151 
	C501.417694,120.697174 504.441132,122.676613 506.670441,125.612015 
	C509.890717,129.852203 512.815918,134.315933 515.885437,138.671356 
	C517.392029,140.809189 518.609802,143.201981 521.761902,145.514267 
	C521.761902,139.569855 521.720093,134.512070 521.776123,129.455338 
	C521.815369,125.915192 521.606812,122.069931 526.662109,121.749031 
	C530.590271,121.499680 532.316833,123.805847 532.324524,129.251740 
	C532.338745,139.413193 532.276855,149.574722 532.279297,159.736221 
	C532.280090,163.051483 531.947876,166.208923 528.262878,167.525681 
	C524.463257,168.883392 522.205322,166.287643 520.346985,163.766785 
	C515.162048,156.733215 510.212250,149.526291 504.257751,141.096939 
	C504.257751,148.894348 504.304535,155.158218 504.241180,161.420975 
	C504.199463,165.544739 502.510071,168.146576 497.505157,167.533417 
z"/>
<path fill="#000000" opacity="1.000000" stroke="none" 
	d="
M901.602905,533.895996 
	C900.084290,536.126282 898.122498,536.307861 896.064453,536.304810 
	C888.565674,536.293823 881.066223,536.246887 873.568298,536.325928 
	C868.907043,536.375061 866.826355,533.909851 866.798462,529.554626 
	C866.731140,519.057007 866.764954,508.558502 866.808533,498.060547 
	C866.826050,493.836731 868.838562,491.591797 873.267700,491.638489 
	C880.932312,491.719299 888.598389,491.695862 896.263611,491.663239 
	C899.484070,491.649536 902.066345,492.655792 902.172852,496.240784 
	C902.288696,500.139587 899.523682,501.261383 896.155090,501.294922 
	C891.322876,501.343018 886.490051,501.357788 881.657715,501.334717 
	C879.251160,501.323242 877.404724,501.703857 877.328491,504.779510 
	C877.250732,507.913971 878.793945,508.858887 881.624939,508.821442 
	C885.120911,508.775116 888.633728,508.729889 892.111755,509.017487 
	C894.709351,509.232300 897.108459,510.239166 897.217041,513.448730 
	C897.328857,516.753174 894.808960,517.754272 892.297974,518.028992 
	C888.837036,518.407715 885.311340,518.355896 881.820435,518.252014 
	C878.657898,518.157898 877.351501,519.376221 877.282349,522.626465 
	C877.206482,526.194946 879.171875,526.129028 881.779114,526.081055 
	C886.936279,525.986084 892.122009,525.901855 897.251892,526.334717 
	C901.479309,526.691406 903.651733,529.041687 901.602905,533.895996 
z"/>
<path fill="#000000" opacity="1.000000" stroke="none" 
	d="
M154.518311,535.635010 
	C151.723343,527.487122 145.821213,526.678955 138.643890,527.209351 
	C134.545746,527.512085 131.779877,528.151184 130.276657,532.419434 
	C129.203430,535.466675 126.985573,538.204773 123.058563,536.662659 
	C119.221581,535.155945 119.309174,532.009460 120.537979,528.719299 
	C124.903580,517.029968 130.138351,505.712006 135.722061,494.576355 
	C138.428421,489.178955 144.784378,489.072388 147.562973,494.459930 
	C153.428253,505.832275 158.165604,517.730957 162.548828,529.758850 
	C163.391174,532.070312 162.923798,534.048706 161.109772,535.624451 
	C159.127426,537.346436 156.984390,537.688782 154.518311,535.635010 
M144.742325,513.617249 
	C143.820663,511.453979 143.525742,508.963623 141.578445,506.945221 
	C139.131149,510.212311 138.129242,513.612610 136.823181,518.060059 
	C140.019684,516.513550 144.664444,521.334106 144.742325,513.617249 
z"/>
<path fill="#000000" opacity="1.000000" stroke="none" 
	d="
M496.013580,871.877136 
	C496.369598,865.122742 499.504913,860.754944 505.613617,858.932800 
	C513.008911,856.727051 520.127930,857.141724 526.284973,862.432312 
	C528.054626,863.952942 528.909363,865.906860 527.394043,868.182129 
	C525.892334,870.437073 523.958130,871.107727 521.371460,870.028748 
	C518.159851,868.689209 514.993958,867.136475 511.338837,867.389709 
	C509.005157,867.551331 506.878418,868.166016 506.458618,870.748962 
	C506.039551,873.327271 508.154449,874.130615 510.109894,874.697571 
	C513.299500,875.622498 516.573853,876.268066 519.735901,877.272461 
	C526.562439,879.440796 530.279358,883.916504 530.220398,889.616394 
	C530.158508,895.600586 525.829163,901.147400 519.108154,902.735291 
	C512.082336,904.395203 505.157928,903.749756 499.134216,899.207214 
	C496.623779,897.314026 494.600281,895.011230 496.801300,891.601562 
	C498.923187,888.314514 501.551147,888.651062 504.510986,890.505188 
	C507.782928,892.554749 511.216187,894.371948 515.289246,893.486755 
	C517.288818,893.052124 519.247009,892.180603 519.497498,889.822021 
	C519.748535,887.459167 517.696655,886.745483 516.022095,886.189514 
	C512.877991,885.145874 509.654022,884.322937 506.431030,883.541138 
	C500.437012,882.087280 496.830200,878.500244 496.013580,871.877136 
z"/>
<path fill="#000000" opacity="1.000000" stroke="none" 
	d="
M785.784058,684.835327 
	C794.422302,687.706787 796.394897,693.626221 791.432434,700.671814 
	C789.591003,703.286316 787.336670,705.464966 784.636292,707.217102 
	C782.414551,708.658630 780.479248,708.411255 778.956848,706.354187 
	C777.306641,704.124451 779.267151,703.201538 780.710266,702.046997 
	C783.810974,699.566162 786.892700,697.020508 786.379272,691.748657 
	C781.997925,694.386353 777.882812,696.238037 775.561523,700.875305 
	C770.075256,711.835022 760.401917,713.431702 751.029053,704.985168 
	C748.507690,705.692566 746.190186,707.577393 743.300293,707.641663 
	C740.963013,707.693604 738.793579,707.175171 738.101562,704.702271 
	C737.248657,701.654663 740.029541,701.762634 741.753540,701.138123 
	C746.294312,699.493286 747.342957,698.315613 748.289307,693.006042 
	C746.522949,694.287964 746.591187,697.861267 743.599609,696.369263 
	C741.599121,695.371460 740.573792,693.728699 740.849182,691.505615 
	C741.170349,688.912964 742.717468,687.317017 745.292664,686.770935 
	C751.776855,685.395935 756.271545,689.238403 755.544922,695.856934 
	C755.133911,699.600708 754.720093,702.729126 759.554626,703.988831 
	C764.215271,705.203186 767.265869,703.758972 769.557373,699.747986 
	C771.372131,696.571533 773.282898,693.439270 775.333862,690.411194 
	C777.709290,686.904114 781.037415,684.887207 785.784058,684.835327 
z"/>
<path fill="#000000" opacity="1.000000" stroke="none" 
	d="
M745.513000,680.387268 
	C742.094849,681.968994 740.009277,684.653259 737.487976,686.801819 
	C733.493103,690.205933 729.023560,690.497070 724.382080,688.751343 
	C719.127441,686.775085 718.273499,682.320679 722.081421,678.192261 
	C723.972046,676.142517 726.880066,674.540710 725.984253,670.833618 
	C725.279419,670.833618 724.683167,670.646118 724.364868,670.864258 
	C722.391785,672.216370 720.245850,674.015930 718.613953,670.805725 
	C717.126709,667.880249 718.660950,665.500244 721.383606,664.307800 
	C724.828979,662.798950 728.306335,663.125488 731.066223,665.935730 
	C734.010925,668.934082 733.987732,672.376831 732.218445,676.055664 
	C731.155090,678.266663 728.475708,679.445679 728.282898,682.468445 
	C730.425171,683.664001 732.094116,682.460876 733.600220,681.328064 
	C735.186523,680.134949 736.570496,678.669617 738.022400,677.301575 
	C743.600708,672.045471 747.351868,671.188293 753.626587,675.179626 
	C757.715393,677.780701 760.426819,677.028137 763.739380,674.167664 
	C765.605774,672.555969 768.017700,668.651306 770.636658,671.745667 
	C773.060913,674.609924 769.677368,676.969177 767.512817,679.075195 
	C762.246765,684.198853 756.680359,685.961914 750.161316,681.322327 
	C748.946594,680.457825 747.437927,680.076599 745.513000,680.387268 
z"/>
<path fill="#000000" opacity="1.000000" stroke="none" 
	d="
M774.321167,274.888672 
	C769.484863,280.939117 762.939758,281.300018 759.947144,275.923462 
	C757.883362,272.215729 758.183228,268.461334 761.117188,265.379425 
	C764.008911,262.341919 767.791748,262.298981 771.147644,264.296051 
	C774.973328,266.572662 776.281921,270.173431 774.321167,274.888672 
z"/>
<path fill="#000000" opacity="1.000000" stroke="none" 
	d="
M251.677979,761.316406 
	C251.511154,754.761047 253.659714,751.964355 258.745209,751.689392 
	C263.829498,751.414368 267.120850,753.957153 267.503418,758.455505 
	C267.933472,763.512329 264.927612,767.433044 260.022064,767.895264 
	C255.493942,768.321899 252.846970,765.956909 251.677979,761.316406 
z"/>
<path fill="#000000" opacity="1.000000" stroke="none" 
	d="
M773.934326,763.591553 
	C770.947754,767.957581 767.186829,769.199768 762.922302,766.844604 
	C759.107727,764.737854 758.102905,760.994080 759.297729,756.914795 
	C760.460876,752.943054 764.339355,751.007812 768.908813,751.756714 
	C774.208862,752.625488 776.339478,757.308838 773.934326,763.591553 
z"/>
<path fill="#000000" opacity="1.000000" stroke="none" 
	d="
M253.540131,277.206604 
	C250.613205,271.500641 251.220047,266.695862 255.096710,264.530579 
	C258.639160,262.551971 262.308960,262.749084 265.202484,265.709930 
	C268.108032,268.683167 268.112152,272.383179 266.132050,275.867401 
	C264.042450,279.544250 260.566376,280.413361 256.660675,279.430603 
	C255.615219,279.167542 254.755585,278.165955 253.540131,277.206604 
z"/>
<path fill="#000000" opacity="1.000000" stroke="none" 
	d="
M804.507324,710.910522 
	C808.347778,712.748535 810.539734,715.170837 809.205688,719.353882 
	C807.940918,723.320007 802.204590,728.126709 799.035706,727.957214 
	C795.330994,727.759155 792.105164,722.949707 793.097473,719.103638 
	C794.312500,714.394043 798.897766,710.946228 804.507324,710.910522 
z"/>
<path fill="#000000" opacity="1.000000" stroke="none" 
	d="
M233.008087,722.588379 
	C230.940918,726.872925 227.837830,728.136658 223.810104,726.600098 
	C219.589081,724.989807 216.090500,719.153198 216.923401,715.500977 
	C217.877563,711.316956 223.083099,709.098267 226.868561,711.639221 
	C230.502960,714.078796 233.538925,717.203613 233.008087,722.588379 
z"/>
<path fill="#000000" opacity="1.000000" stroke="none" 
	d="
M746.760925,661.441406 
	C752.216125,662.409363 757.910950,661.979736 761.248291,668.989685 
	C752.475769,669.700928 744.535400,664.364624 736.516968,668.771240 
	C736.652527,663.353333 739.207886,661.664490 746.760925,661.441406 
z"/>
<path fill="#000000" opacity="1.000000" stroke="none" 
	d="
M772.848755,688.806030 
	C771.424927,690.455750 770.232300,691.830750 769.036377,693.202759 
	C767.443420,695.030273 765.640198,695.263916 763.880737,693.582764 
	C762.252197,692.026672 762.403442,690.001465 764.041321,688.800598 
	C767.756653,686.076233 770.347473,682.525696 772.569519,678.617737 
	C773.558716,676.877869 774.883667,676.982178 776.330872,677.884888 
	C777.940430,678.888733 778.730347,680.398621 777.703369,682.089355 
	C776.335327,684.341736 774.635681,686.392639 772.848755,688.806030 
z"/>
<path fill="#000000" opacity="1.000000" stroke="none" 
	d="
M748.094604,653.935547 
	C745.275757,653.423706 744.470825,651.830566 744.991028,649.527527 
	C745.416077,647.645752 746.837585,646.844482 748.665588,646.810303 
	C750.725220,646.771790 752.835754,646.922363 753.219604,649.539612 
	C753.451965,651.123718 753.783508,652.316711 755.504761,652.944580 
	C757.464417,653.659485 758.320557,655.171265 757.610352,657.304871 
	C757.094543,658.854553 756.049255,659.889587 754.422913,660.063049 
	C752.300232,660.289490 751.111206,659.013306 750.224792,657.236267 
	C749.675415,656.134888 750.178955,654.424927 748.094604,653.935547 
z"/>
<path fill="#000000" opacity="1.000000" stroke="none" 
	d="
M772.089966,714.724976 
	C773.380859,717.005249 773.666382,718.884705 771.489502,720.255615 
	C769.935120,721.234680 768.302124,721.210876 766.880066,719.961121 
	C765.421509,718.679260 765.312927,716.892944 766.156494,715.410706 
	C767.513062,713.026917 769.698547,713.482483 772.089966,714.724976 
z"/>
<path fill="#000000" opacity="1.000000" stroke="none" 
	d="
M522.722046,783.305847 
	C521.589722,787.499390 522.043457,791.730774 519.486694,795.214417 
	C519.335632,790.146851 520.471558,785.334351 521.914124,780.204773 
	C523.188110,781.338501 522.887451,782.166931 522.722046,783.305847 
z"/>
</svg>